<?xml version="1.0" standalone="no"?><!-- Generator: Gravit.io --><svg xmlns="http://www.w3.org/2000/svg" xmlns:xlink="http://www.w3.org/1999/xlink" style="isolation:isolate" viewBox="0 0 50.824 50.824" width="50.824" height="50.824"><defs><clipPath id="_clipPath_h7XnC9V7AUzPHHxZV93LdSvyQR148oCW"><rect width="50.824" height="50.824"/></clipPath></defs><g clip-path="url(#_clipPath_h7XnC9V7AUzPHHxZV93LdSvyQR148oCW)"><path d=" M 25.412 0.199 C 39.437 0.199 50.824 11.586 50.824 25.612 C 50.824 39.637 39.437 51.024 25.412 51.024 C 11.387 51.024 0 39.637 0 25.612 C 0 11.586 11.387 0.199 25.412 0.199 Z  M 25.412 1.612 C 38.131 1.612 49.412 12.725 49.412 25.612 C 49.412 38.499 38.131 49.611 25.412 49.612 C 12.693 49.612 1.412 38.499 1.412 25.612 C 1.412 12.725 12.693 1.612 25.412 1.612 Z  M 25.412 2.612 C 37.446 2.612 48.412 13.577 48.412 25.612 C 48.412 37.646 37.446 48.612 25.412 48.612 C 13.378 48.612 2.412 37.646 2.412 25.612 C 2.412 13.577 13.378 2.612 25.412 2.612 Z " fill-rule="evenodd" fill="rgb(102,184,195)"/><path d=" M 14.075 31.083 C 14.075 31.08 14.07 15.104 14.072 15.108 Q 16.076 14.519 16.91 13.974 Q 17.608 13.644 19.744 11.241 L 31.083 11.241 Q 33.007 13.511 33.914 13.974 Q 34.667 14.457 36.748 15.108 C 36.738 15.114 36.752 31.177 36.752 31.083 C 34.511 35.531 29.171 38.219 25.413 39.583 C 21.668 38.054 16.252 35.24 14.075 31.083 Z " fill-rule="evenodd" fill="rgb(255,255,255)"/><path d=" M 15.343 30.497 C 15.343 30.493 15.339 16.171 15.341 16.174 Q 17.121 15.646 17.861 15.157 Q 18.481 14.862 20.378 12.707 L 30.449 12.707 Q 32.158 14.743 32.963 15.157 Q 33.632 15.59 35.48 16.174 C 35.471 16.179 35.484 30.581 35.484 30.497 C 33.493 34.484 28.751 36.894 25.413 38.117 C 22.087 36.746 17.277 34.223 15.343 30.497 Z " fill-rule="evenodd" fill="rgb(102,184,195)" vector-effect="non-scaling-stroke" stroke-width="0.34" stroke="rgb(102,184,195)" stroke-linejoin="round" stroke-linecap="butt" stroke-miterlimit="1.414"/><g><path d=" M 30.242 19.843 L 24.59 28.213 L 21.792 25.073 L 21.001 26.245 L 24.269 29.911 L 24.738 30.413 L 25.135 29.852 L 31.181 20.898 L 30.242 19.843 Z " fill="rgb(255,255,255)"/></g></g></svg>